<svg width="32" height="32" viewBox="0 0 32 32" fill="none" xmlns="http://www.w3.org/2000/svg">
<g clip-path="url(#clip0)">
<path d="M19.2726 0H16.818L14.9036 2.93421L16.818 5.86843H19.2726C20.0316 5.86843 20.6468 5.25322 20.6468 4.49429V1.37413C20.6468 0.615211 20.0316 0 19.2726 0V0Z" fill="#FF6F7F"/>
<path d="M12.9894 5.86843H9.16058L7.97974 2.93421L9.16058 0H12.9894L14.9038 2.93421L12.9894 5.86843Z" fill="#7292DF"/>
<path d="M26.0802 25.3133C26.0802 27.5231 20.48 29.3146 13.5719 29.3146C6.66373 29.3146 1.06348 27.5231 1.06348 25.3133V13.9493H26.0802V25.3133Z" fill="#FFCA8A"/>
<path d="M2.83552 18.9655C2.83552 17.2052 3.14187 15.5168 3.7028 13.9493H1.06348V25.3133C1.06348 26.664 3.15571 27.8582 6.35977 28.5828C4.16181 25.9884 2.83552 22.6321 2.83552 18.9655Z" fill="#FFBE73"/>
<path d="M13.5719 17.9507C20.4801 17.9507 26.0803 16.1592 26.0803 13.9493C26.0803 11.7394 20.4801 9.94794 13.5719 9.94794C6.66368 9.94794 1.06348 11.7394 1.06348 13.9493C1.06348 16.1592 6.66368 17.9507 13.5719 17.9507Z" fill="#F9F097"/>
<path d="M7.75303 0C7.22603 0 6.79883 0.427203 6.79883 0.954205V12.7684C6.79883 13.4206 7.3275 13.9493 7.97967 13.9493C8.63184 13.9493 9.16052 13.4206 9.16052 12.7684V0H7.75303Z" fill="#E8A882"/>
<path d="M18.2622 15.0097C19.0597 15.0097 19.7062 14.3632 19.7062 13.5657C19.7062 12.7681 19.0597 12.1216 18.2622 12.1216C17.4646 12.1216 16.8181 12.7681 16.8181 13.5657C16.8181 14.3632 17.4646 15.0097 18.2622 15.0097Z" fill="#FFCA8A"/>
<path d="M12.9892 15.8519C13.6242 15.8519 14.139 15.3371 14.139 14.7021C14.139 14.067 13.6242 13.5522 12.9892 13.5522C12.3541 13.5522 11.8394 14.067 11.8394 14.7021C11.8394 15.3371 12.3541 15.8519 12.9892 15.8519Z" fill="#FFCA8A"/>
<path d="M22.51 17.7794C21.16 17.7794 19.8908 18.3052 18.9362 19.2598L9.63813 28.5578C9.48147 28.7145 9.3453 28.8854 9.22998 29.0669C10.5825 29.227 12.0451 29.3146 13.5717 29.3146C20.4799 29.3146 26.0801 27.5231 26.0801 25.3133V17.7794H22.51Z" fill="#FFBE73"/>
<path d="M20.0745 20.3979L10.7764 29.6961C9.9262 30.5463 10.5283 32 11.7308 32H20.9466L26.9728 28.2528L30.9362 19.3891H22.5101C21.5966 19.3891 20.7205 19.752 20.0745 20.3979Z" fill="#F9F097"/>
<path d="M20.1788 30.1465C19.4949 30.8305 19.9792 32 20.9466 32H27.7911C29.5281 32 30.9362 30.5919 30.9362 28.8549V19.3891L20.1788 30.1465Z" fill="#FFCA8A"/>
<path d="M4.66625 22.439C4.39956 22.439 4.18335 22.2228 4.18335 21.9561V20.9926C4.18335 20.7259 4.39956 20.5097 4.66625 20.5097C4.93294 20.5097 5.14915 20.7259 5.14915 20.9926V21.9561C5.14915 22.2228 4.93294 22.439 4.66625 22.439Z" fill="#423E4F"/>
<path d="M14.6938 22.439C14.4271 22.439 14.2109 22.2228 14.2109 21.9561V20.9926C14.2109 20.7259 14.4271 20.5097 14.6938 20.5097C14.9605 20.5097 15.1767 20.7259 15.1767 20.9926V21.9561C15.1767 22.2228 14.9605 22.439 14.6938 22.439Z" fill="#423E4F"/>
<path d="M9.68004 23.0125C9.03386 23.0125 8.41935 22.7326 7.99408 22.2446C7.81889 22.0436 7.83981 21.7386 8.04089 21.5633C8.24197 21.3881 8.54703 21.409 8.72223 21.6101C8.964 21.8875 9.3131 22.0466 9.68004 22.0466C10.0469 22.0466 10.3961 21.8875 10.6378 21.61C10.813 21.409 11.118 21.388 11.3192 21.5633C11.5203 21.7386 11.5412 22.0436 11.3659 22.2446C10.9407 22.7327 10.3262 23.0125 9.68004 23.0125Z" fill="#423E4F"/>
<path d="M22.2416 24.6808C23.0389 24.6808 23.6852 24.0345 23.6852 23.2373C23.6852 22.44 23.0389 21.7937 22.2416 21.7937C21.4444 21.7937 20.7981 22.44 20.7981 23.2373C20.7981 24.0345 21.4444 24.6808 22.2416 24.6808Z" fill="#FFCA8A"/>
<path d="M18.1922 27.858C18.8359 27.858 19.3578 27.3361 19.3578 26.6924C19.3578 26.0486 18.8359 25.5268 18.1922 25.5268C17.5485 25.5268 17.0266 26.0486 17.0266 26.6924C17.0266 27.3361 17.5485 27.858 18.1922 27.858Z" fill="#FFCA8A"/>
<path d="M12.9893 0H16.8181V5.86843H12.9893V0Z" fill="#EAEAEA"/>
<path d="M5.15001 10.9908C2.63927 11.7227 1.06348 12.7771 1.06348 13.9493C1.06348 14.7582 1.81441 15.5108 3.10439 16.1402C3.46245 14.2769 4.16728 12.5371 5.15001 10.9908Z" fill="#F8E86A"/>
</g>
<defs>
<clipPath id="clip0">
<rect width="32" height="32" fill="white"/>
</clipPath>
</defs>
</svg>
