<svg width="40" height="40" viewBox="0 0 40 40" fill="none" xmlns="http://www.w3.org/2000/svg">
<g clip-path="url(#clip0)">
<path d="M14.4331 7.43569C15.0803 7.43569 15.605 6.91101 15.605 6.26382V3.90405C15.605 3.25687 15.0803 2.73218 14.4331 2.73218C13.7859 2.73218 13.2612 3.25687 13.2612 3.90405V6.26382C13.2612 6.91101 13.7859 7.43569 14.4331 7.43569Z" fill="#595959"/>
<path d="M3.80165 11.7252L1.75797 10.5453C1.19743 10.2216 0.480709 10.4138 0.157193 10.9742C-0.1664 11.5348 0.0256309 12.2515 0.5861 12.575L2.62977 13.7549C3.18899 14.0779 3.90626 13.8878 4.23055 13.326C4.55415 12.7655 4.36212 12.0488 3.80165 11.7252Z" fill="#595959"/>
<path d="M2.62977 24.6781L0.5861 25.8579C0.0256309 26.1815 -0.1664 26.8981 0.157193 27.4587C0.482428 28.022 1.20016 28.2098 1.75797 27.8876L3.80165 26.7077C4.36212 26.3841 4.55415 25.6674 4.23055 25.1069C3.90696 24.5465 3.1904 24.3542 2.62977 24.6781Z" fill="#595959"/>
<path d="M26.2362 13.7549L28.2799 12.575C28.8404 12.2514 29.0324 11.5348 28.7088 10.9742C28.3852 10.4138 27.6687 10.2216 27.108 10.5453L25.0644 11.7252C24.5039 12.0488 24.3119 12.7655 24.6355 13.326C24.9607 13.8893 25.6784 14.0771 26.2362 13.7549Z" fill="#595959"/>
<path d="M31.1646 20.8801C29.8231 17.5651 26.569 15.3732 22.9892 15.3887C21.5222 12.1224 18.2395 9.84143 14.433 9.84143C9.26365 9.84143 5.05811 14.0471 5.05811 19.2164C5.05811 22.5329 6.78998 25.4515 9.396 27.1185C6.61732 31.5082 9.7767 37.2633 14.9749 37.2633C33.4133 37.2441 32.4044 37.3105 32.7255 37.2108C36.8214 36.7489 40.0001 33.2749 40.0001 29.0603C40.0001 24.2472 35.8874 20.5102 31.1646 20.8801ZM7.40186 19.2165C7.40186 15.3395 10.5561 12.1853 14.4331 12.1853C17.0476 12.1853 19.3319 13.6204 20.5433 15.7436C16.8403 16.8287 14.2691 20.2094 14.2279 24.0882C13.0638 24.2159 11.9662 24.6508 11.0209 25.3617C8.86428 24.1594 7.40186 21.8559 7.40186 19.2165ZM32.2822 34.8995C31.8648 34.9334 21.2304 34.9137 14.9749 34.9196C11.1108 34.9196 9.22771 30.1298 12.1028 27.5043C12.9658 26.7163 14.1149 26.297 15.3671 26.4109C16.1225 26.479 16.738 25.8255 16.6337 25.0812C16.0904 21.2038 19.093 17.7321 23.0157 17.7321C25.9176 17.7321 28.4752 19.6854 29.2354 22.4822C29.3979 23.0798 29.9973 23.4475 30.6035 23.3224C34.2561 22.5671 37.6563 25.3592 37.6563 29.0603C37.6563 32.0881 35.2958 34.653 32.2822 34.8995Z" fill="#595959"/>
</g>
<defs>
<clipPath id="clip0">
<rect width="40" height="40" fill="white"/>
</clipPath>
</defs>
</svg>
