<svg width="61" height="61" viewBox="0 0 61 61" fill="none" xmlns="http://www.w3.org/2000/svg">
<path d="M50.1582 48.3711H10.8418C7.97646 48.3711 5.26673 47.2599 3.21179 45.242C1.14065 43.2084 0 40.5115 0 37.6484C0 34.7854 1.14065 32.0885 3.21179 30.0549C4.83377 28.4622 6.86369 27.4344 9.05612 27.0718C9.05516 27.0235 9.05469 26.9747 9.05469 26.9258C9.05469 19.0425 15.4683 12.6289 23.3516 12.6289C26.275 12.6289 29.0845 13.509 31.4762 15.1741C33.1599 16.3462 34.5578 17.848 35.597 19.5874C37.2743 18.547 39.2091 17.9902 41.2227 17.9902C46.5704 17.9902 51.0163 21.925 51.8168 27.0516C54.0579 27.3947 56.1349 28.4314 57.7883 30.0549C59.8593 32.0885 61 34.7852 61 37.6484C61 40.5116 59.8593 43.2084 57.7883 45.242C55.7333 47.2599 53.0235 48.3711 50.1582 48.3711ZM10.8418 30.5C6.83438 30.5 3.57422 33.7068 3.57422 37.6484C3.57422 41.5901 6.83438 44.7969 10.8418 44.7969H50.1582C54.1656 44.7969 57.4258 41.5901 57.4258 37.6484C57.4258 33.7068 54.1656 30.5 50.1582 30.5H48.3711V28.7129C48.3711 24.7712 45.1643 21.5645 41.2227 21.5645C39.3443 21.5645 37.5674 22.2936 36.2193 23.6176L34.2957 25.5069L33.305 22.9991C31.6741 18.8708 27.7672 16.2031 23.3516 16.2031C17.4391 16.2031 12.6289 21.0133 12.6289 26.9258C12.6289 27.348 12.6951 27.8013 12.7652 28.2814L13.0853 30.5H10.8418Z" fill="#595959"/>
</svg>
