<svg width="147" height="32" viewBox="0 0 147 32" fill="none" xmlns="http://www.w3.org/2000/svg">
<path d="M56.54 24.12C55.7267 24.12 55.1267 23.9067 54.74 23.48C54.3667 23.04 54.18 22.5 54.18 21.86C54.18 21.58 54.2133 21.2667 54.28 20.92C54.3467 20.56 54.4133 20.2133 54.48 19.88C54.56 19.5467 54.6133 19.3333 54.64 19.24C54.7467 18.7733 54.8467 18.3133 54.94 17.86C55.0333 17.4067 55.08 17.04 55.08 16.76C55.08 16.08 54.84 15.74 54.36 15.74C54.0267 15.74 53.7267 15.9 53.46 16.22C53.2067 16.54 53 16.9533 52.84 17.46C52.44 19.5533 52.0333 21.7333 51.62 24H48.74L51.48 11.24C51.0133 11.2 50.1333 11.0867 48.84 10.9L46.02 24H43.14L46 10.72C44.7333 10.7733 43.7467 11.1 43.04 11.7C42.3333 12.3 41.98 13.3333 41.98 14.8C41.98 15.2933 42.0267 15.64 42.12 15.84C42.2133 16.0267 42.26 16.1333 42.26 16.16C41.54 16.16 41 16.0133 40.64 15.72C40.2933 15.4133 40.12 14.9133 40.12 14.22C40.12 13.2867 40.3733 12.4267 40.88 11.64C41.3867 10.8533 42.1667 10.22 43.22 9.74C44.2733 9.26 45.5867 9.02 47.16 9.02C47.4267 9.02 47.9933 9.08 48.86 9.2C50.4467 9.42667 51.68 9.54 52.56 9.54C53.7067 9.54 54.5133 9.38 54.98 9.06C54.78 9.43333 54.6133 9.78667 54.48 10.12C54.36 10.4533 54.2067 11 54.02 11.76C53.8333 12.5067 53.5933 13.6133 53.3 15.08C53.98 14.3067 54.7733 13.92 55.68 13.92C56.36 13.92 56.9 14.1067 57.3 14.48C57.7 14.8533 57.9 15.42 57.9 16.18C57.9 16.5667 57.8533 17 57.76 17.48C57.6667 17.9467 57.5333 18.52 57.36 19.2C57.2533 19.6133 57.1533 20.02 57.06 20.42C56.98 20.8067 56.94 21.1133 56.94 21.34C56.94 21.6067 57 21.8133 57.12 21.96C57.24 22.1067 57.4467 22.18 57.74 22.18C58.14 22.18 58.46 22.04 58.7 21.76C58.94 21.4667 59.18 21.02 59.42 20.42H60.26C59.7667 21.8867 59.1933 22.8733 58.54 23.38C57.9 23.8733 57.2333 24.12 56.54 24.12ZM63.0341 24.12C62.0607 24.12 61.3007 23.8667 60.7541 23.36C60.2074 22.84 59.9341 22.0333 59.9341 20.94C59.9341 20.02 60.1141 19.0067 60.4741 17.9C60.8341 16.7933 61.4207 15.84 62.2341 15.04C63.0474 14.2267 64.0807 13.82 65.3341 13.82C66.8007 13.82 67.5341 14.46 67.5341 15.74C67.5341 16.4867 67.3207 17.1733 66.8941 17.8C66.4674 18.4267 65.9007 18.9333 65.1941 19.32C64.4874 19.6933 63.7341 19.9067 62.9341 19.96C62.9074 20.2533 62.8941 20.4533 62.8941 20.56C62.8941 21.6667 63.3074 22.22 64.1341 22.22C64.5074 22.22 64.9074 22.12 65.3341 21.92C65.7607 21.72 66.1474 21.4667 66.4941 21.16C66.1341 23.1333 64.9807 24.12 63.0341 24.12ZM63.0741 19C63.5807 18.9867 64.0541 18.82 64.4941 18.5C64.9474 18.18 65.3074 17.7733 65.5741 17.28C65.8541 16.7733 65.9941 16.2467 65.9941 15.7C65.9941 15.1533 65.8274 14.88 65.4941 14.88C65.0274 14.88 64.5607 15.3067 64.0941 16.16C63.6407 17 63.3007 17.9467 63.0741 19ZM72.9783 10.64C72.1383 10.6667 71.4916 10.9867 71.0383 11.6C70.5983 12.2133 70.3783 13.2733 70.3783 14.78C70.3783 15.2733 70.4249 15.62 70.5183 15.82C70.6116 16.0067 70.6583 16.1133 70.6583 16.14C69.9383 16.14 69.3983 15.9933 69.0383 15.7C68.6916 15.3933 68.5183 14.8933 68.5183 14.2C68.5183 13.2533 68.7516 12.3933 69.2183 11.62C69.6849 10.8333 70.4249 10.2 71.4383 9.72C72.4649 9.24 73.7649 9 75.3383 9C75.6583 9 76.0849 9.03333 76.6183 9.1C77.5783 9.19333 78.2583 9.24 78.6583 9.24C79.3649 9.24 79.9649 9.16 80.4583 9C80.4183 9.12 80.3449 9.38667 80.2383 9.8C80.1316 10.2 79.9383 10.5467 79.6583 10.84C79.3916 11.12 79.0249 11.3067 78.5583 11.4C77.7716 11.4 76.8383 11.2733 75.7583 11.02L74.9183 15H77.8383L77.5183 16.48H74.5983L72.9783 24H70.0983L72.9783 10.64ZM79.678 14H82.558L82.298 15.24C82.7513 14.84 83.158 14.5333 83.518 14.32C83.8913 14.1067 84.2913 14 84.718 14C85.1446 14 85.478 14.1467 85.718 14.44C85.9713 14.7333 86.098 15.0867 86.098 15.5C86.098 15.8867 85.9713 16.2267 85.718 16.52C85.4646 16.8133 85.1113 16.96 84.658 16.96C84.3646 16.96 84.1646 16.8933 84.058 16.76C83.9646 16.6133 83.8913 16.4067 83.838 16.14C83.798 15.9667 83.758 15.84 83.718 15.76C83.678 15.68 83.6046 15.64 83.498 15.64C83.218 15.64 82.978 15.7 82.778 15.82C82.5913 15.9267 82.3446 16.12 82.038 16.4L80.438 24H77.558L79.678 14ZM89.4975 24.12C88.5108 24.12 87.7442 23.8667 87.1975 23.36C86.6508 22.84 86.3775 22.0333 86.3775 20.94C86.3775 20.02 86.5575 19.0067 86.9175 17.9C87.2775 16.7933 87.8642 15.84 88.6775 15.04C89.4908 14.2267 90.5242 13.82 91.7775 13.82C93.2442 13.82 93.9775 14.46 93.9775 15.74C93.9775 16.4867 93.7642 17.1733 93.3375 17.8C92.9108 18.4267 92.3442 18.9333 91.6375 19.32C90.9308 19.6933 90.1775 19.9067 89.3775 19.96C89.3508 20.36 89.3375 20.6267 89.3375 20.76C89.3375 21.4133 89.4508 21.86 89.6775 22.1C89.9042 22.3267 90.2708 22.44 90.7775 22.44C91.4975 22.44 92.1108 22.2733 92.6175 21.94C93.1375 21.6067 93.7042 21.1 94.3175 20.42H94.9975C93.5175 22.8867 91.6842 24.12 89.4975 24.12ZM89.5375 19C90.0308 18.9733 90.4975 18.8 90.9375 18.48C91.3908 18.16 91.7508 17.7533 92.0175 17.26C92.2975 16.7667 92.4375 16.2467 92.4375 15.7C92.4375 15.1533 92.2708 14.88 91.9375 14.88C91.4575 14.88 90.9842 15.3 90.5175 16.14C90.0642 16.98 89.7375 17.9333 89.5375 19ZM102.333 24.12C101.52 24.12 100.92 23.9067 100.533 23.48C100.16 23.04 99.9733 22.5 99.9733 21.86C99.9733 21.58 100.007 21.2667 100.073 20.92C100.14 20.56 100.207 20.2133 100.273 19.88C100.353 19.5467 100.407 19.3333 100.433 19.24C100.54 18.7733 100.64 18.3133 100.733 17.86C100.827 17.4067 100.873 17.04 100.873 16.76C100.873 16.08 100.633 15.74 100.153 15.74C99.8066 15.74 99.4999 15.9133 99.2333 16.26C98.9666 16.5933 98.7533 17.0333 98.5933 17.58L97.2333 24H94.3533L96.4733 14H99.3533L99.1333 15.04C99.7999 14.2933 100.58 13.92 101.473 13.92C102.153 13.92 102.693 14.1067 103.093 14.48C103.493 14.8533 103.693 15.42 103.693 16.18C103.693 16.5667 103.647 17 103.553 17.48C103.46 17.9467 103.327 18.52 103.153 19.2C103.047 19.6133 102.947 20.02 102.853 20.42C102.773 20.8067 102.733 21.1133 102.733 21.34C102.733 21.6067 102.793 21.8133 102.913 21.96C103.033 22.1067 103.24 22.18 103.533 22.18C103.933 22.18 104.253 22.04 104.493 21.76C104.733 21.4667 104.973 21.02 105.213 20.42H106.053C105.56 21.8867 104.987 22.8733 104.333 23.38C103.693 23.8733 103.027 24.12 102.333 24.12ZM108.871 24.12C107.884 24.12 107.118 23.8667 106.571 23.36C106.024 22.84 105.751 22.0333 105.751 20.94C105.751 20.02 105.931 19.0067 106.291 17.9C106.664 16.7933 107.251 15.84 108.051 15.04C108.864 14.2267 109.891 13.82 111.131 13.82C111.931 13.82 112.498 13.9933 112.831 14.34C113.178 14.6867 113.351 15.1267 113.351 15.66C113.351 16.1267 113.251 16.4867 113.051 16.74C112.851 16.9933 112.598 17.12 112.291 17.12C112.064 17.12 111.831 17.04 111.591 16.88C111.751 16.44 111.831 16.0467 111.831 15.7C111.831 15.4467 111.784 15.2467 111.691 15.1C111.598 14.9533 111.458 14.88 111.271 14.88C110.871 14.88 110.471 15.2067 110.071 15.86C109.671 16.5133 109.344 17.3067 109.091 18.24C108.838 19.1733 108.711 20.0133 108.711 20.76C108.711 21.4133 108.824 21.86 109.051 22.1C109.278 22.3267 109.644 22.44 110.151 22.44C110.871 22.44 111.484 22.2733 111.991 21.94C112.511 21.6067 113.078 21.1 113.691 20.42H114.371C112.891 22.8867 111.058 24.12 108.871 24.12ZM121.707 24.12C120.893 24.12 120.293 23.9067 119.907 23.48C119.533 23.04 119.347 22.5 119.347 21.86C119.347 21.58 119.38 21.2667 119.447 20.92C119.513 20.56 119.58 20.2133 119.647 19.88C119.727 19.5467 119.78 19.3333 119.807 19.24C119.913 18.7733 120.013 18.3133 120.107 17.86C120.2 17.4067 120.247 17.04 120.247 16.76C120.247 16.08 120.007 15.74 119.527 15.74C119.18 15.74 118.873 15.9133 118.607 16.26C118.34 16.5933 118.127 17.0333 117.967 17.58L116.607 24H113.727L116.627 10.4L119.587 10L118.507 15.04C119.173 14.2933 119.953 13.92 120.847 13.92C121.527 13.92 122.067 14.1067 122.467 14.48C122.867 14.8533 123.067 15.42 123.067 16.18C123.067 16.5667 123.02 17 122.927 17.48C122.833 17.9467 122.7 18.52 122.527 19.2C122.42 19.6133 122.32 20.02 122.227 20.42C122.147 20.8067 122.107 21.1133 122.107 21.34C122.107 21.6067 122.167 21.8133 122.287 21.96C122.407 22.1067 122.613 22.18 122.907 22.18C123.307 22.18 123.627 22.04 123.867 21.76C124.107 21.4667 124.347 21.02 124.587 20.42H125.427C124.933 21.8867 124.36 22.8733 123.707 23.38C123.067 23.8733 122.4 24.12 121.707 24.12ZM128.724 12.92C128.284 12.92 127.911 12.7667 127.604 12.46C127.298 12.1533 127.144 11.78 127.144 11.34C127.144 10.9 127.298 10.5267 127.604 10.22C127.911 9.9 128.284 9.74 128.724 9.74C129.164 9.74 129.538 9.9 129.844 10.22C130.164 10.5267 130.324 10.9 130.324 11.34C130.324 11.78 130.164 12.1533 129.844 12.46C129.538 12.7667 129.164 12.92 128.724 12.92ZM127.364 24.12C126.724 24.12 126.204 23.92 125.804 23.52C125.418 23.12 125.224 22.52 125.224 21.72C125.224 21.3867 125.278 20.9533 125.384 20.42L126.744 14H129.624L128.184 20.8C128.131 21 128.104 21.2133 128.104 21.44C128.104 21.7067 128.164 21.9 128.284 22.02C128.418 22.1267 128.631 22.18 128.924 22.18C129.311 22.18 129.671 22.02 130.004 21.7C130.338 21.3667 130.578 20.94 130.724 20.42H131.564C131.071 21.86 130.438 22.84 129.664 23.36C128.891 23.8667 128.124 24.12 127.364 24.12ZM134.376 24.12C133.39 24.12 132.623 23.8667 132.076 23.36C131.53 22.84 131.256 22.0333 131.256 20.94C131.256 20.02 131.436 19.0067 131.796 17.9C132.156 16.7933 132.743 15.84 133.556 15.04C134.37 14.2267 135.403 13.82 136.656 13.82C138.123 13.82 138.856 14.46 138.856 15.74C138.856 16.4867 138.643 17.1733 138.216 17.8C137.79 18.4267 137.223 18.9333 136.516 19.32C135.81 19.6933 135.056 19.9067 134.256 19.96C134.23 20.36 134.216 20.6267 134.216 20.76C134.216 21.4133 134.33 21.86 134.556 22.1C134.783 22.3267 135.15 22.44 135.656 22.44C136.376 22.44 136.99 22.2733 137.496 21.94C138.016 21.6067 138.583 21.1 139.196 20.42H139.876C138.396 22.8867 136.563 24.12 134.376 24.12ZM134.416 19C134.91 18.9733 135.376 18.8 135.816 18.48C136.27 18.16 136.63 17.7533 136.896 17.26C137.176 16.7667 137.316 16.2467 137.316 15.7C137.316 15.1533 137.15 14.88 136.816 14.88C136.336 14.88 135.863 15.3 135.396 16.14C134.943 16.98 134.616 17.9333 134.416 19ZM142.272 24.12C141.632 24.12 141.092 24 140.652 23.76C140.212 23.5067 139.886 23.1867 139.672 22.8C139.459 22.4 139.352 21.9867 139.352 21.56C139.352 21.12 139.459 20.74 139.672 20.42C139.872 20.0867 140.119 19.8467 140.412 19.7C140.932 18.7667 141.386 17.8267 141.772 16.88C142.159 15.92 142.526 14.8867 142.872 13.78L145.832 13.38C145.899 15.0867 146.012 16.9333 146.172 18.92C146.239 19.72 146.272 20.3 146.272 20.66C146.272 21.4733 146.066 22.14 145.652 22.66C145.239 23.18 144.726 23.5533 144.112 23.78C143.512 24.0067 142.899 24.12 142.272 24.12ZM141.632 22.54C142.126 22.54 142.539 22.3933 142.872 22.1C143.206 21.8067 143.372 21.3333 143.372 20.68C143.372 20.28 143.332 19.72 143.252 19C143.119 17.48 143.032 16.46 142.992 15.94C142.672 16.9933 142.132 18.2533 141.372 19.72C141.679 19.88 141.832 20.1133 141.832 20.42C141.832 20.6733 141.746 20.9 141.572 21.1C141.412 21.3 141.206 21.4 140.952 21.4C140.672 21.4 140.492 21.3133 140.412 21.14C140.412 21.62 140.506 21.9733 140.692 22.2C140.892 22.4267 141.206 22.54 141.632 22.54Z" fill="#262626"/>
<g clip-path="url(#clip0)">
<path d="M19.2729 0H16.8182L14.9038 2.93421L16.8182 5.86843H19.2729C20.0318 5.86843 20.647 5.25322 20.647 4.49429V1.37413C20.6471 0.615211 20.0318 0 19.2729 0V0Z" fill="#FF6F7F"/>
<path d="M12.9894 5.86843H9.16058L7.97974 2.93421L9.16058 0H12.9894L14.9038 2.93421L12.9894 5.86843Z" fill="#7292DF"/>
<path d="M26.0803 25.3133C26.0803 27.5231 20.4801 29.3146 13.572 29.3146C6.66386 29.3146 1.0636 27.5231 1.0636 25.3133V13.9493H26.0803V25.3133Z" fill="#FFCA8A"/>
<path d="M2.83564 18.9655C2.83564 17.2052 3.14199 15.5168 3.70292 13.9493H1.0636V25.3133C1.0636 26.664 3.15583 27.8582 6.35989 28.5828C4.16193 25.9884 2.83564 22.6321 2.83564 18.9655Z" fill="#FFBE73"/>
<path d="M13.572 17.9507C20.4802 17.9507 26.0804 16.1592 26.0804 13.9493C26.0804 11.7394 20.4802 9.94794 13.572 9.94794C6.6638 9.94794 1.0636 11.7394 1.0636 13.9493C1.0636 16.1592 6.6638 17.9507 13.572 17.9507Z" fill="#F9F097"/>
<path d="M7.75303 0C7.22603 0 6.79883 0.427203 6.79883 0.954205V12.7684C6.79883 13.4206 7.3275 13.9493 7.97967 13.9493C8.63184 13.9493 9.16052 13.4206 9.16052 12.7684V0H7.75303Z" fill="#E8A882"/>
<path d="M18.2623 15.0098C19.0598 15.0098 19.7064 14.3632 19.7064 13.5657C19.7064 12.7682 19.0598 12.1216 18.2623 12.1216C17.4648 12.1216 16.8182 12.7682 16.8182 13.5657C16.8182 14.3632 17.4648 15.0098 18.2623 15.0098Z" fill="#FFCA8A"/>
<path d="M12.9894 15.8519C13.6244 15.8519 14.1392 15.3371 14.1392 14.7021C14.1392 14.067 13.6244 13.5522 12.9894 13.5522C12.3544 13.5522 11.8396 14.067 11.8396 14.7021C11.8396 15.3371 12.3544 15.8519 12.9894 15.8519Z" fill="#FFCA8A"/>
<path d="M22.5102 17.7794C21.1602 17.7794 19.8911 18.3051 18.9365 19.2597L9.63837 28.5578C9.48172 28.7145 9.34554 28.8854 9.23022 29.0668C10.5828 29.227 12.0453 29.3146 13.5719 29.3146C20.4801 29.3146 26.0803 27.5231 26.0803 25.3133V17.7794H22.5102Z" fill="#FFBE73"/>
<path d="M20.0748 20.3979L10.7767 29.6961C9.92645 30.5463 10.5286 32 11.731 32H20.9468L26.9731 28.2528L30.9365 19.3891H22.5104C21.5969 19.3891 20.7208 19.752 20.0748 20.3979Z" fill="#F9F097"/>
<path d="M20.179 30.1465C19.495 30.8305 19.9794 32 20.9467 32H27.7912C29.5282 32 30.9364 30.5919 30.9364 28.8549V19.3891L20.179 30.1465Z" fill="#FFCA8A"/>
<path d="M4.66649 22.439C4.3998 22.439 4.18359 22.2228 4.18359 21.9561V20.9927C4.18359 20.726 4.3998 20.5098 4.66649 20.5098C4.93318 20.5098 5.14939 20.726 5.14939 20.9927V21.9561C5.14939 22.2228 4.93318 22.439 4.66649 22.439Z" fill="#423E4F"/>
<path d="M14.6941 22.439C14.4274 22.439 14.2112 22.2228 14.2112 21.9561V20.9927C14.2112 20.726 14.4274 20.5098 14.6941 20.5098C14.9608 20.5098 15.177 20.726 15.177 20.9927V21.9561C15.177 22.2228 14.9608 22.439 14.6941 22.439Z" fill="#423E4F"/>
<path d="M9.68028 23.0125C9.0341 23.0125 8.4196 22.7326 7.99433 22.2446C7.81913 22.0436 7.84006 21.7386 8.04114 21.5633C8.24221 21.3881 8.54728 21.409 8.72247 21.6101C8.96424 21.8875 9.31334 22.0466 9.68028 22.0466C10.0472 22.0466 10.3963 21.8875 10.6381 21.61C10.8133 21.409 11.1183 21.388 11.3194 21.5633C11.5205 21.7386 11.5414 22.0436 11.3662 22.2446C10.9409 22.7327 10.3265 23.0125 9.68028 23.0125Z" fill="#423E4F"/>
<path d="M22.2416 24.6809C23.0389 24.6809 23.6852 24.0346 23.6852 23.2373C23.6852 22.4401 23.0389 21.7938 22.2416 21.7938C21.4444 21.7938 20.7981 22.4401 20.7981 23.2373C20.7981 24.0346 21.4444 24.6809 22.2416 24.6809Z" fill="#FFCA8A"/>
<path d="M18.1923 27.858C18.836 27.858 19.3579 27.3361 19.3579 26.6924C19.3579 26.0486 18.836 25.5268 18.1923 25.5268C17.5486 25.5268 17.0267 26.0486 17.0267 26.6924C17.0267 27.3361 17.5486 27.858 18.1923 27.858Z" fill="#FFCA8A"/>
<path d="M12.9894 0H16.8182V5.86843H12.9894V0Z" fill="#EAEAEA"/>
<path d="M5.15013 10.9908C2.63939 11.7227 1.0636 12.7771 1.0636 13.9493C1.0636 14.7582 1.81454 15.5108 3.10452 16.1402C3.46257 14.2769 4.16741 12.537 5.15013 10.9908Z" fill="#F8E86A"/>
</g>
<defs>
<clipPath id="clip0">
<rect width="32" height="32" fill="white"/>
</clipPath>
</defs>
</svg>
