<svg width="40" height="40" viewBox="0 0 40 40" fill="none" xmlns="http://www.w3.org/2000/svg">
<g clip-path="url(#clip0)">
<path d="M31.2509 26.2499H8.75096C3.9262 26.2499 0.000976562 22.3247 0.000976562 17.5C0.000976562 12.6752 3.9262 8.74998 8.75096 8.74998C9.19416 8.74998 9.63361 8.78287 10.0669 8.84826C10.6397 3.8746 14.8763 0 20.0009 0C25.1256 0 29.3622 3.8746 29.935 8.84826C30.3683 8.78287 30.8077 8.74998 31.2509 8.74998C36.0757 8.74998 40.0009 12.6752 40.0009 17.5C40.0009 22.3247 36.0757 26.2499 31.2509 26.2499ZM8.75096 11.25C5.30472 11.25 2.50097 14.0537 2.50097 17.5C2.50097 20.9462 5.30472 23.75 8.75096 23.75H31.2509C34.6972 23.75 37.5009 20.9462 37.5009 17.5C37.5009 14.0537 34.6972 11.25 31.2509 11.25C30.5319 11.25 29.8278 11.3705 29.1584 11.6083C28.7644 11.7483 28.3264 11.682 27.9914 11.4315C27.6565 11.181 27.469 10.7797 27.4919 10.3621C27.4979 10.2509 27.5008 10.1325 27.5008 9.99998C27.5008 5.86444 24.1364 2.49999 20.0009 2.49999C15.8653 2.49999 12.5009 5.86444 12.5009 9.99998C12.5009 10.1325 12.5038 10.2509 12.5099 10.3621C12.5327 10.7797 12.3453 11.181 12.0103 11.4315C11.6753 11.682 11.2372 11.7483 10.8433 11.6083C10.1741 11.3705 9.47002 11.25 8.75096 11.25Z" fill="#595959"/>
<path d="M16.8739 33.125C16.6356 33.125 16.3947 33.057 16.1817 32.915C15.6072 32.532 15.452 31.7559 15.835 31.1815L17.085 29.3065C17.4679 28.7321 18.2441 28.5769 18.8184 28.9598C19.3929 29.3428 19.5481 30.1189 19.1651 30.6932L17.9151 32.5682C17.6742 32.9296 17.2778 33.125 16.8739 33.125Z" fill="#595959"/>
<path d="M6.24899 33.125C6.01071 33.125 5.76985 33.057 5.5568 32.915C4.98235 32.532 4.82712 31.7559 5.21008 31.1815L6.46008 29.3065C6.84297 28.7321 7.61922 28.5769 8.19352 28.9598C8.76797 29.3428 8.92321 30.1189 8.54024 30.6932L7.29024 32.5682C7.0493 32.9296 6.6529 33.125 6.24899 33.125Z" fill="#595959"/>
<path d="M28.7487 33.125C28.5105 33.125 28.2696 33.057 28.0566 32.915C27.4821 32.532 27.3269 31.7559 27.7098 31.1815L28.9598 29.3065C29.3428 28.7321 30.1189 28.5769 30.6933 28.9598C31.2677 29.3428 31.423 30.1189 31.04 30.6932L29.79 32.5682C29.5491 32.9296 29.1527 33.125 28.7487 33.125Z" fill="#595959"/>
<path d="M16.8739 39.9999C16.6356 39.9999 16.3947 39.932 16.1817 39.7899C15.6072 39.407 15.452 38.6309 15.835 38.0565L17.085 36.1815C17.4679 35.6071 18.2441 35.4519 18.8184 35.8348C19.3929 36.2178 19.5481 36.9939 19.1651 37.5682L17.9151 39.4432C17.6742 39.8045 17.2778 39.9999 16.8739 39.9999Z" fill="#595959"/>
<path d="M22.4987 35.6248C22.2605 35.6248 22.0196 35.5568 21.8066 35.4148C21.2321 35.0318 21.0769 34.2557 21.4598 33.6814L22.7098 31.8064C23.0927 31.2319 23.869 31.0768 24.4433 31.4596C25.0177 31.8426 25.173 32.6187 24.79 33.1931L23.54 35.0681C23.2991 35.4294 22.9027 35.6248 22.4987 35.6248Z" fill="#595959"/>
<path d="M28.1237 39.9999C27.8855 39.9999 27.6446 39.932 27.4316 39.7899C26.8571 39.407 26.7019 38.6309 27.0848 38.0565L28.3348 36.1815C28.7177 35.6071 29.4939 35.4519 30.0683 35.8348C30.6427 36.2178 30.798 36.9939 30.415 37.5682L29.165 39.4432C28.9241 39.8045 28.5277 39.9999 28.1237 39.9999Z" fill="#595959"/>
<path d="M11.249 35.6248C11.0107 35.6248 10.7698 35.5568 10.5568 35.4148C9.98235 35.0318 9.82711 34.2557 10.2101 33.6814L11.4601 31.8064C11.843 31.2319 12.6191 31.0768 13.1935 31.4596C13.768 31.8426 13.9232 32.6187 13.5402 33.1931L12.2902 35.0681C12.0493 35.4294 11.6529 35.6248 11.249 35.6248Z" fill="#595959"/>
<path d="M5.62387 39.9999C5.38559 39.9999 5.14473 39.932 4.93168 39.7899C4.35723 39.407 4.20199 38.6309 4.58496 38.0565L5.83496 36.1815C6.21785 35.6071 6.9941 35.4519 7.5684 35.8348C8.14285 36.2178 8.29809 36.9939 7.91512 37.5682L6.66512 39.4432C6.42418 39.8045 6.02777 39.9999 5.62387 39.9999Z" fill="#595959"/>
</g>
<defs>
<clipPath id="clip0">
<rect width="40" height="40" fill="white"/>
</clipPath>
</defs>
</svg>
