<svg width="40" height="40" viewBox="0 0 40 40" fill="none" xmlns="http://www.w3.org/2000/svg">
<g clip-path="url(#clip0)">
<path d="M19.9978 33.3888C19.244 33.3888 18.6328 33.9999 18.6328 34.7538V38.6346C18.6328 39.3885 19.244 39.9996 19.9978 39.9996C20.7518 39.9996 21.3627 39.3885 21.3627 38.6346V34.7538C21.3627 33.9998 20.7516 33.3888 19.9978 33.3888Z" fill="#595959"/>
<path d="M19.9978 6.61177C20.7518 6.61177 21.3627 6.00063 21.3627 5.2468V1.36557C21.3627 0.61175 20.7518 0.000610352 19.9978 0.000610352C19.244 0.000610352 18.6328 0.61175 18.6328 1.36557V5.2468C18.6328 6.00063 19.244 6.61177 19.9978 6.61177Z" fill="#595959"/>
<path d="M8.60269 29.4667L5.85747 32.2105C5.32422 32.7434 5.32404 33.6076 5.85692 34.1407C6.12355 34.4073 6.47298 34.5407 6.82241 34.5407C7.17166 34.5407 7.52072 34.4075 7.78735 34.1413L10.5326 31.3975C11.0658 30.8646 11.066 30.0003 10.5331 29.4673C9.99986 28.934 9.13575 28.934 8.60269 29.4667Z" fill="#595959"/>
<path d="M30.431 10.9321C30.7803 10.9321 31.1295 10.7989 31.3961 10.5325L34.141 7.7887C34.674 7.25564 34.6742 6.39152 34.1413 5.85828C33.6083 5.32503 32.7442 5.32485 32.2109 5.8581L29.4661 8.60186C28.933 9.13474 28.9328 9.99903 29.4657 10.5321C29.7322 10.7989 30.0816 10.9321 30.431 10.9321Z" fill="#595959"/>
<path d="M6.61079 20.0005C6.61079 19.2466 5.99965 18.6355 5.24583 18.6355H1.36496C0.61114 18.6355 0 19.2466 0 20.0005C0 20.7543 0.61114 21.3654 1.36496 21.3654H5.24583C5.99965 21.3654 6.61079 20.7543 6.61079 20.0005Z" fill="#595959"/>
<path d="M38.6351 18.6355H34.7524C33.9984 18.6355 33.3875 19.2466 33.3875 20.0005C33.3875 20.7543 33.9984 21.3654 34.7524 21.3654H38.6351C39.3891 21.3654 40.0001 20.7543 40.0001 20.0005C40.0001 19.2468 39.3891 18.6355 38.6351 18.6355Z" fill="#595959"/>
<path d="M8.60242 10.5325C8.86886 10.7989 9.21829 10.9321 9.56754 10.9321C9.91679 10.9321 10.2662 10.7989 10.5327 10.5325C11.0657 9.99941 11.0657 9.13511 10.5327 8.60205L7.7889 5.85829C7.25584 5.32523 6.39154 5.32523 5.85866 5.85829C5.3256 6.39136 5.3256 7.25565 5.85866 7.78853L8.60242 10.5325Z" fill="#595959"/>
<path d="M31.3979 29.4671C30.8648 28.9341 30.0005 28.9339 29.4675 29.467C28.9342 30 28.9342 30.8643 29.4673 31.3972L32.2107 34.141C32.4773 34.4076 32.8266 34.5408 33.176 34.5408C33.5252 34.5408 33.8747 34.4076 34.1411 34.1411C34.6744 33.6081 34.6743 32.7438 34.1413 32.2109L31.3979 29.4671Z" fill="#595959"/>
<path d="M19.9992 9.3761C14.1413 9.3761 9.37561 14.1422 9.37561 20.0004C9.37561 25.8585 14.1413 30.6244 19.9992 30.6244C25.8576 30.6244 30.6237 25.8585 30.6237 20.0004C30.6237 14.1422 25.8575 9.3761 19.9992 9.3761ZM19.9992 27.8945C15.6466 27.8945 12.1055 24.3532 12.1055 20.0004C12.1055 15.6475 15.6466 12.106 19.9992 12.106C24.3524 12.106 27.8938 15.6475 27.8938 20.0004C27.8938 24.3532 24.3524 27.8945 19.9992 27.8945Z" fill="#595959"/>
</g>
<defs>
<clipPath id="clip0">
<rect width="40" height="40" fill="white"/>
</clipPath>
</defs>
</svg>
